<svg id="Capa_1" enable-background="new 0 0 512 512" height="512" viewBox="0 0 512 512" width="512" xmlns="http://www.w3.org/2000/svg"><g><g><path d="m405.356 335.709-38.842-12.298c-6.383-4.54-13.896-7.604-21.918-8.728l-8.548-1.197-10.985-9.571c-5.284-4.604-12.057-6.465-18.541-5.615v-14.498c57.25-19.651 98.511-74.027 98.511-137.859 0-29.849-9.023-57.63-24.484-80.76l21.892-21.892c5.38-5.382 2.712-14.608-4.718-16.283l-15.884-3.573-3.573-15.884s-.001-.001-.001-.002c-1.672-7.423-10.897-10.098-16.282-4.716l-21.892 21.892c-23.13-15.461-50.911-24.484-80.76-24.484-80.34 0-145.701 65.361-145.701 145.701 0 61.315 38.07 113.905 91.814 135.374v16.979c-6.476-.84-13.235 1.023-18.509 5.619l-11.122 9.69-3.588.667c-5.467 1.017-10.618 2.894-15.293 5.515l-50.29 15.923c-27.023 8.556-45.178 33.348-45.178 61.693v86.084c0 15.723 12.791 28.514 28.514 28.514h332.042c15.723 0 28.515-12.791 28.515-28.514v-86.084c0-28.345-18.157-53.137-45.179-61.693zm-36.534 13.27c1.529 3.467 2.305 6.676 2.305 9.536 0 2.152-4.681 8.854-17.24 17.674-6.362 4.467-7.341 13.838-2.018 19.591 3.465 3.748 7.366 9.558 6.266 15.957-3.132 18.234-32.47 49.247-80.603 85.256h-4.951c6.09-10.22 13.285-22.54 20.674-36.105.147-.238.281-.484.401-.737 21.875-40.253 45.302-91.259 46.719-130.905.285.112 20.328 1.327 28.447 19.733zm-112.648 136.05c-5.664-9.136-12.423-20.038-19.469-31.99l13.165-59.224h12.535l16.451 62.15c-7.019 12.772-13.827 24.393-19.59 34.054-.989-1.598-2.019-3.259-3.092-4.99zm47.527-113.108 19.883-26.516c-4.966 28.44-19.208 61.508-34.364 91.07l-12.784-48.298 7.159-8.449c7.811 1.477 15.557-1.739 20.106-7.807zm-56.442 6.888-5.835-6.677 14.576-12.607 14.452 12.5-5.748 6.784zm-19.09.962 7.533 8.62-10.074 45.316c-15.773-28.436-30.903-60.198-36.636-87.531l19.305 25.746c4.467 5.954 12.078 9.229 19.872 7.849zm87.036-64.54 7.409 6.454c-32.012 41.711-31.418 45.423-37.294 42.994l-18.02-15.317 36.451-33.942c.057-.053.114-.105.172-.156.003-.003.007-.006.01-.009 3.219-2.831 8.02-2.858 11.272-.024zm50.544-294.94 2.188 9.725c.815 3.632 3.689 6.507 7.317 7.321l9.73 2.188-29.088 29.088-15.702-3.532-3.532-15.702zm-237.111 125.652c0-72.065 58.629-130.694 130.694-130.694 25.698 0 49.688 7.455 69.92 20.317l-5.277 5.278c-2.358 2.358-3.33 5.71-2.598 8.965l1.95 8.668c-17.948-13.167-40.079-20.951-63.994-20.951-21.989 0-43.165 6.549-61.238 18.939-3.418 2.343-4.289 7.013-1.945 10.431 2.343 3.418 7.011 4.289 10.431 1.945 15.564-10.67 33.805-16.309 52.752-16.309 23.058 0 44.192 8.398 60.503 22.296l-16.807 16.807c-11.966-9.645-27.169-15.425-43.697-15.425-38.451 0-69.733 31.283-69.733 69.733s31.283 69.733 69.733 69.733 69.733-31.283 69.733-69.733c0-16.528-5.78-31.732-15.425-43.696l16.807-16.807c13.898 16.311 22.296 37.444 22.296 60.503 0 18.947-5.64 37.188-16.309 52.752-2.344 3.419-1.472 8.089 1.945 10.431 3.437 2.355 8.1 1.455 10.431-1.945 12.39-18.074 18.939-39.249 18.939-61.238 0-23.915-7.784-46.046-20.951-63.994l8.661 1.948c3.24.733 6.599-.224 8.972-2.596l5.278-5.277c12.861 20.232 20.317 44.221 20.317 69.92 0 72.065-58.629 130.695-130.694 130.695s-130.694-58.63-130.694-130.696zm143.645 0c0 7.141-5.81 12.951-12.951 12.951s-12.951-5.81-12.951-12.951 5.81-12.951 12.951-12.951c7.14 0 12.951 5.81 12.951 12.951zm.782-24.346c-4.059-2.298-8.746-3.612-13.734-3.612-15.416 0-27.958 12.542-27.958 27.958s12.542 27.958 27.958 27.958 27.958-12.542 27.958-27.958c0-4.988-1.313-9.675-3.612-13.734l19.277-19.277c6.966 9.183 11.103 20.623 11.103 33.011 0 30.177-24.55 54.727-54.727 54.727s-54.727-24.55-54.727-54.727 24.55-54.727 54.727-54.727c12.388 0 23.828 4.138 33.011 11.103zm-13.733 170.048c11.055 0 21.827-1.238 32.183-3.582v18.245l-35.516 33.072-35.547-33.102v-19.9c12.382 3.432 25.42 5.267 38.88 5.267zm-62.538 23.586c3.208-2.795 7.924-2.806 11.139-.091.059.054.12.106.181.158.045.04.09.08.134.122l36.449 33.941-18.214 15.395c-2.094.769-4.664.184-6.18-1.837l-30.918-41.234zm-120.322 168.255v-86.084c0-21.771 13.946-40.814 34.701-47.385l25.356-8.028c-2.66 5.727-4.006 11.275-4.006 16.527 0 12.19 14.791 23.649 21.825 28.683-7.128 8.424-10.181 17.969-8.616 27.079 1.655 9.635 7.541 20.493 17.994 33.195 2.632 3.202 7.362 3.66 10.561 1.026 3.2-2.633 3.659-7.362 1.026-10.561-10.749-13.062-13.977-21.458-14.792-26.2-1.099-6.397 2.801-12.21 6.265-15.956 2.547-2.754 3.775-6.516 3.37-10.322-.402-3.769-2.364-7.148-5.386-9.27-12.56-8.82-17.241-15.522-17.241-17.674 0-3.611 1.221-7.734 3.631-12.254 4.296-8.059 11.67-13.931 20.53-16.464 2.552 51.554 45.46 120.767 71.729 163.139.866 1.397 1.703 2.748 2.514 4.057h-4.808c-16.071-12.025-30.238-23.648-42.134-34.571-3.052-2.801-7.797-2.602-10.601.452-2.803 3.052-2.601 7.798.452 10.601 8.234 7.561 17.502 15.431 27.689 23.517h-77.874v-41.652c0-4.144-3.359-7.503-7.503-7.503s-7.503 3.359-7.503 7.503v41.652h-33.672c-7.448 0-13.507-6.059-13.507-13.507zm359.056 0c0 7.448-6.059 13.507-13.508 13.507h-33.703v-41.652c0-4.144-3.359-7.503-7.503-7.503s-7.503 3.359-7.503 7.503v41.652h-71.199c11.585-9.202 24.396-20.031 35.756-31.141 21.188-20.719 32.655-37.59 35.057-51.575 1.565-9.111-1.488-18.657-8.615-27.078 7.033-5.033 21.824-16.493 21.824-28.684 0-4.495-.99-9.225-2.944-14.083l17.637 5.584c20.756 6.571 34.702 25.614 34.702 47.385v86.085z"/><path d="m322.403 234.136c3.37-2.413 4.143-7.1 1.73-10.469-2.413-3.371-7.103-4.143-10.469-1.73-15.908 11.394-34.695 17.417-54.333 17.417-51.507 0-93.411-41.903-93.411-93.411 0-19.638 6.023-38.425 17.417-54.333 2.413-3.369 1.639-8.055-1.73-10.469-3.365-2.413-8.056-1.64-10.469 1.73-13.231 18.47-20.225 40.28-20.225 63.071 0 59.782 48.636 108.417 108.417 108.417 22.793.002 44.602-6.992 63.073-20.223z"/></g></g></svg>